# xmcd CD database file
#
# Track frame offsets:
#	150
#	17846
#	39664
#	58524
#	75025
#	95192
#	108813
#	126916
#	142848
#	160534
#
# Disc length: 2370 seconds
#
# Revision: 1
# Processed by: cddbd v1.5.2PL0 Copyright (c) Steve Scherf et al.
# Submitted via: CDex 1.51
#
DISCID=7009400a
DTITLE=Artistes divers - Les années 1990 (vol 1)
DYEAR=1990
DGENRE=Chanson
TTITLE0=William Sheller - Un homme heureux
TTITLE1=Maurane - Sur un prélude de Bach
TTITLE2=Era - Ameno
TTITLE3=Ute Lemper and Art Mengo - Parler d'amour
TTITLE4=Luz Casal - Piensa en mi
TTITLE5=Au p'tit bonheur - J'veux du soleil
TTITLE6=Faudel - Tellement n'brick
TTITLE7=Emilia - Big big world (Pierre J's big radio remix)
TTITLE8=Lilicub - Voyage en Italie
TTITLE9=Texas - Say what you want
EXTD=YEAR: 1990
EXTT0=
EXTT1=
EXTT2=
EXTT3=
EXTT4=
EXTT5=
EXTT6=
EXTT7=
EXTT8=
EXTT9=
PLAYORDER=
